<?xml version="1.0" encoding="UTF-8"?>
<svg width="151px" height="160px" viewBox="0 0 151 160" version="1.1" xmlns="http://www.w3.org/2000/svg" xmlns:xlink="http://www.w3.org/1999/xlink">
    <!-- Generator: Sketch 62 (91390) - https://sketch.com -->
    <title>Logo</title>
    <desc>Created with Sketch.</desc>
    <defs>
        <polygon id="path-1" points="75.3975932 0.408163265 150.795147 0.408163265 150.795147 160 75.3975932 160 3.95492114e-05 160 3.95492114e-05 0.408163265"></polygon>
    </defs>
    <g id="Page-1" stroke="none" stroke-width="1" fill="none" fill-rule="evenodd">
        <g id="Riverbend-CSA-Home-Copy-4" transform="translate(-645.000000, -4975.000000)">
            <g id="Logo" transform="translate(645.000000, 4975.000000)">
                <g id="Group-3">
                    <mask id="mask-2" fill="white">
                        <use xlink:href="#path-1"></use>
                    </mask>
                    <g id="Clip-2"></g>
                    <path d="M73.3804563,160 L88.0422395,123.12381 C88.0422395,123.12381 94.4930017,128.565986 109.154785,132.796735 C123.817096,137.029116 131.442068,135.820408 136.133628,132.192653 C140.825187,128.565986 143.757016,123.72898 143.757016,123.72898 C143.757016,123.72898 137.306253,122.520272 135.545995,117.080272 C133.78732,111.639184 127.923135,102.573605 123.231047,99.5493878 C118.537904,96.5262585 114.433977,93.5053061 114.433977,93.5053061 C114.433977,93.5053061 137.892302,88.062585 144.343065,84.4353741 L150.795411,80.8092517 C150.795411,80.8092517 143.757016,72.9507483 134.959946,71.1363265 C126.162876,69.3240816 113.845816,66.9055782 113.845816,66.9055782 C113.845816,66.9055782 125.576299,57.2342857 127.923135,43.3289796 C130.269442,29.4258503 128.51024,20.3580952 125.577355,15.5221769 C122.643414,10.6851701 115.020026,7.0585034 115.020026,7.0585034 C115.020026,7.0585034 116.194236,15.5210884 111.502149,20.3580952 C106.809005,25.1945578 96.2543164,29.4258503 92.1488059,31.2386395 C88.0422395,33.052517 86.2830367,35.4715646 86.2830367,35.4715646 C86.2830367,35.4715646 82.7641031,24.5888435 78.0720157,19.1488435 C73.3804563,13.7093878 59.305778,0.408163265 59.305778,0.408163265 C59.305778,0.408163265 58.719201,19.1504762 59.305778,25.1945578 C59.8923549,31.2386395 60.4784038,37.8878912 60.4784038,40.3069388 C60.4784038,42.724898 48.7484493,32.4484354 38.7787535,30.6345578 C28.8101136,28.8217687 18.8404178,27.6114286 11.2149178,31.2386395 C3.59152972,34.8669388 0.659701049,39.7023129 0.659701049,39.7023129 C0.659701049,39.7023129 6.52283042,40.9110204 11.8014948,43.9330612 C17.0785752,46.9567347 20.5990927,57.2342857 24.7040752,60.8598639 C28.8101136,64.4865306 35.2598199,68.1142857 35.2598199,68.1142857 C35.2598199,68.1142857 20.0125157,73.5542857 11.2149178,76.577415 C2.4178479,79.6010884 -0.514508741,80.2062585 0.0720681818,83.2266667 C0.659701049,86.2503401 1.83127098,86.8538776 12.9751766,90.4816327 C18.5674563,92.3014966 34.673771,95.9216327 34.673771,95.9216327 C34.673771,95.9216327 22.3588234,104.989388 19.4254108,120.706939 C16.4941101,136.423401 23.858264,152.106667 30.8950752,155.733333 C31.5714073,150.50068 31.162229,138.255782 48.7484493,134.612245 C55.7857885,132.192653 58.719201,125.541224 60.4784038,125.541224 C62.2365507,125.541224 63.9968094,154.561088 73.3804563,160" id="Fill-1" fill="#FCDE01" mask="url(#mask-2)"></path>
                </g>
                <path d="M105,79.5005469 C105,97.4483652 90.8955778,112 73.4989399,112 C56.102302,112 42,97.4483652 42,79.5005469 C42,61.5516348 56.102302,47 73.4989399,47 C90.8955778,47 105,61.5516348 105,79.5005469" id="Fill-4" fill="#E26025"></path>
            </g>
        </g>
    </g>
</svg>